<?xml version="1.0" encoding="utf-8"?>
<!-- Generator: Adobe Illustrator 19.1.0, SVG Export Plug-In . SVG Version: 6.00 Build 0)  -->
<svg version="1.1" id="Laag_1" xmlns="http://www.w3.org/2000/svg" xmlns:xlink="http://www.w3.org/1999/xlink" x="0px" y="0px"
	 viewBox="0 0 150 150" style="enable-background:new 0 0 150 150;" xml:space="preserve">
<style type="text/css">
	.st0{fill:#FC4D44;}
	.st1{fill:#72201C;}
	.st2{fill:#FFAA39;}
	.st3{fill:#B75F23;}
	.st4{fill:#1F7F46;}
	.st5{fill:#3DF989;}
	.st6{fill:#FFFFFF;}
</style>
<circle class="st0" cx="74.7" cy="-94.7" r="65"/>
<circle class="st1" cx="245" cy="-94.2" r="65"/>
<circle class="st2" cx="415" cy="-94.2" r="65"/>
<circle class="st3" cx="74.5" cy="75.8" r="65"/>
<circle class="st4" cx="245" cy="75.8" r="65"/>
<circle class="st5" cx="415" cy="75.8" r="65"/>
<path class="st6" d="M214.8,49l8,64.9c0.2,1,0.7,2,1.5,2.8c0.8,0.8,1.7,1.3,2.6,1.3h36.2c0.9,0,1.8-0.4,2.6-1.3
	c0.8-0.8,1.3-1.8,1.5-2.8l8-64.9H214.8z M266.2,57.1h-42.4l0,0H266.2L266.2,57.1z"/>
<g>
	<path class="st6" d="M384.8,49l8,64.9c0.2,1,0.7,2,1.5,2.8c0.8,0.8,1.7,1.3,2.6,1.3h36.2c0.9,0,1.8-0.4,2.6-1.3
		c0.8-0.8,1.3-1.8,1.5-2.8l8-64.9H384.8z M436.2,57.1h-42.4l0,0H436.2L436.2,57.1z"/>
	<path class="st6" d="M396.7,49c2.7-2.5,5.3-5.1,8-7.6c2.6,2.5,5.3,5,8,7.6h11.5c0,0-0.1-0.1-0.1-0.1c2.9-1.9,5.5-3.5,8.3-5.3
		c1.5,1.8,3,3.6,4.5,5.4h8.3c-3-3.7-6.1-7.3-9.2-10.9c-1.6-1.9-3.3-2.2-5.4-0.8c-3.7,2.3-7.4,4.7-11.1,7.1c-0.3-0.3-0.6-0.5-0.8-0.7
		c-3.5-3.4-7.1-6.8-10.6-10.2c-2.3-2.2-4.5-2.2-6.9,0c-5.4,5.2-10.9,10.4-16.3,15.6H396.7z"/>
</g>
<path class="st6" d="M44.5,49l8,64.9c0.2,1,0.7,2,1.5,2.8c0.8,0.8,1.7,1.3,2.6,1.3h36.2c0.9,0,1.8-0.4,2.6-1.3
	c0.8-0.8,1.3-1.8,1.5-2.8l8-64.9H44.5z M93.9,73.4H55.5l-2-16.3h42.4L93.9,73.4z"/>
<path class="st6" d="M384.8-120.5l8,64.9c0.2,1,0.7,2,1.5,2.8c0.8,0.8,1.7,1.3,2.6,1.3h36.2c0.9,0,1.8-0.4,2.6-1.3
	c0.8-0.8,1.3-1.8,1.5-2.8l8-64.9H384.8z M432.9-84.8L397.5-85l-3.6-27.3h42.4L432.9-84.8z"/>
<path class="st6" d="M214.8-120.4l8,64.9c0.2,1,0.7,2,1.5,2.8c0.8,0.8,1.7,1.3,2.6,1.3h36.2c0.9,0,1.8-0.4,2.6-1.3
	c0.8-0.8,1.3-1.8,1.5-2.8l8-64.9H214.8z M261.8-75.4L228-75.3l-4.2-36.9h42.4L261.8-75.4z"/>
<path class="st6" d="M44.8-120.1l8,64.9c0.2,1,0.7,2,1.5,2.8c0.8,0.8,1.7,1.3,2.6,1.3h36.2c0.9,0,1.8-0.4,2.6-1.3
	c0.8-0.8,1.3-1.8,1.5-2.8l8-64.9H44.8z M90-59.2H59.8L53.8-112h42.4L90-59.2z"/>
</svg>
