<?xml version="1.0" encoding="utf-8"?>
<!-- Generator: Adobe Illustrator 19.1.0, SVG Export Plug-In . SVG Version: 6.00 Build 0)  -->
<svg version="1.1" id="Laag_1" xmlns="http://www.w3.org/2000/svg" xmlns:xlink="http://www.w3.org/1999/xlink" x="0px" y="0px"
	 viewBox="-370 248.3 100 100" style="enable-background:new -370 248.3 100 100;" xml:space="preserve">
<style type="text/css">
	.st0{fill:#2ECC71;}
	.st1{opacity:0.66;clip-path:url(#SVGID_2_);fill:#249351;enable-background:new    ;}
	.st2{fill:#FF3333;}
	.st3{fill:#993131;}
	.st4{fill:#FFFFFF;}
	.st5{opacity:0.66;clip-path:url(#SVGID_4_);fill:#249351;enable-background:new    ;}
	.st6{fill:#A53232;}
	.st7{fill:#682121;}
	.st8{opacity:0.66;clip-path:url(#SVGID_6_);fill:#249351;enable-background:new    ;}
	.st9{fill:#E98B39;}
	.st10{opacity:0.66;fill:#915527;enable-background:new    ;}
	.st11{opacity:0.66;clip-path:url(#SVGID_8_);fill:#249351;enable-background:new    ;}
	.st12{fill:#E9D460;}
	.st13{fill:#8C7D3B;}
	.st14{opacity:0.66;clip-path:url(#SVGID_10_);fill:#249351;enable-background:new    ;}
	.st15{fill:#16A085;}
	.st16{opacity:0.66;clip-path:url(#SVGID_12_);fill:#249351;enable-background:new    ;}
	.st17{fill:#0FEA68;}
	.st18{opacity:0.66;fill:#17826E;enable-background:new    ;}
	.st19{fill:#249351;}
</style>
<circle class="st0" cx="-320" cy="298.3" r="44.8"/>
<g>
	<g>
		<defs>
			<circle id="SVGID_1_" cx="-320" cy="298.3" r="44.8"/>
		</defs>
		<clipPath id="SVGID_2_">
			<use xlink:href="#SVGID_1_"  style="overflow:visible;"/>
		</clipPath>
		<polygon class="st1" points="-297.4,279.1 -274.2,310.3 -285.8,349.3 -304.8,332 		"/>
	</g>
</g>
<circle class="st2" cx="-320" cy="298.3" r="44.8"/>
<g>
	<path class="st3" d="M-341.8,279.9l6.3,49.1c0.1,0.8,0.5,1.5,1.2,2.1c0.6,0.6,1.3,1,2,1h28.3c0.7,0,1.4-0.3,2-1
		c0.6-0.6,1-1.3,1.2-2.1l6.3-49.1H-341.8z M-301.7,286h-33.1l0,0H-301.7L-301.7,286z"/>
	<path class="st3" d="M-332.6,279.9c2.1-1.9,4.2-3.9,6.2-5.8c2,1.9,4.1,3.8,6.2,5.8h9l-0.1-0.1c2.3-1.4,4.3-2.7,6.5-4
		c1.2,1.4,2.3,2.7,3.5,4.1h6.5c-2.4-2.8-4.8-5.5-7.2-8.3c-1.3-1.5-2.6-1.7-4.3-0.6c-2.9,1.8-5.8,3.5-8.7,5.3
		c-0.2-0.2-0.4-0.4-0.6-0.6c-2.8-2.6-5.5-5.1-8.3-7.7c-1.8-1.7-3.5-1.7-5.4,0c-4.3,3.9-8.5,7.8-12.7,11.8h9.4V279.9z"/>
</g>
<g>
	<path class="st4" d="M-343.6,278.1l6.3,50.8c0.1,0.8,0.5,1.5,1.2,2.2c0.6,0.7,1.3,1,2,1h28.3c0.7,0,1.4-0.3,2-1
		c0.6-0.7,1-1.4,1.2-2.2l6.3-50.8H-343.6z M-303.4,284.4h-33.1l0,0H-303.4L-303.4,284.4z"/>
	<path class="st4" d="M-334.3,278.1c2.1-2,4.2-4,6.2-6c2,1.9,4.1,3.9,6.2,6h9l-0.1-0.1c2.3-1.4,4.3-2.8,6.5-4.1
		c1.2,1.4,2.3,2.8,3.5,4.2h6.5c-2.4-2.9-4.8-5.7-7.2-8.6c-1.3-1.5-2.6-1.7-4.3-0.6c-2.9,1.8-5.8,3.7-8.7,5.5
		c-0.2-0.2-0.4-0.4-0.6-0.6c-2.8-2.6-5.5-5.3-8.3-7.9c-1.8-1.7-3.5-1.7-5.4,0c-4.3,4.1-8.5,8.1-12.7,12.2H-334.3z"/>
</g>
<circle class="st0" cx="-200" cy="298.3" r="44.8"/>
<g>
	<g>
		<defs>
			<circle id="SVGID_3_" cx="-200" cy="298.3" r="44.8"/>
		</defs>
		<clipPath id="SVGID_4_">
			<use xlink:href="#SVGID_3_"  style="overflow:visible;"/>
		</clipPath>
		<polygon class="st5" points="-177.4,279.1 -154.2,310.3 -165.8,349.3 -184.8,332 		"/>
	</g>
</g>
<circle class="st6" cx="-200" cy="298.3" r="44.8"/>
<path class="st3" d="M-221.8,279.9l6.3,49.1c0.1,0.8,0.5,1.5,1.2,2.1c0.6,0.6,1.3,1,2,1h28.3c0.7,0,1.4-0.3,2-1
	c0.6-0.7,1-1.3,1.2-2.1l6.3-49.1H-221.8z M-181.7,286h-33.1l0,0H-181.7L-181.7,286z"/>
<path class="st7" d="M-221.6,280.1l6.3,48.9c0.1,0.8,0.5,1.4,1.2,2.1c0.6,0.7,1.3,1,2,1h28.3c0.7,0,1.4-0.3,2-1
	c0.6-0.7,1-1.3,1.2-2.1l6.3-48.9H-221.6z M-181.5,286.1h-33.1l0,0H-181.5L-181.5,286.1z"/>
<path class="st4" d="M-223.6,278.1l6.3,50.8c0.1,0.8,0.5,1.5,1.2,2.2c0.6,0.7,1.3,1,2,1h28.3c0.7,0,1.4-0.3,2-1
	c0.6-0.7,1-1.4,1.2-2.2l6.3-50.8H-223.6z M-183.4,284.4h-33.1l0,0H-183.4L-183.4,284.4z"/>
<circle class="st0" cx="-80" cy="298.3" r="44.8"/>
<g>
	<g>
		<defs>
			<circle id="SVGID_5_" cx="-80" cy="298.3" r="44.8"/>
		</defs>
		<clipPath id="SVGID_6_">
			<use xlink:href="#SVGID_5_"  style="overflow:visible;"/>
		</clipPath>
		<polygon class="st8" points="-57.4,279.1 -34.2,310.3 -45.8,349.3 -64.8,332 		"/>
	</g>
</g>
<circle class="st9" cx="-80" cy="298.3" r="44.8"/>
<path class="st10" d="M-100.7,279.1l6.3,49.8c0.1,0.8,0.5,1.5,1.2,2.2c0.6,0.6,1.3,1,2,1H-63c0.7,0,1.4-0.3,2-1
	c0.6-0.7,1-1.4,1.2-2.2l6.3-49.8H-100.7z M-62.1,297.8h-30l-1.6-12.5h33.1L-62.1,297.8z"/>
<path class="st4" d="M-102.7,278.1l6.3,50.8c0.1,0.8,0.5,1.5,1.2,2.2c0.6,0.7,1.3,1,2,1H-65c0.7,0,1.4-0.3,2-1
	c0.6-0.7,1-1.4,1.2-2.2l6.3-50.8H-102.7z M-64.1,297.2h-30l-1.5-12.7h33.1L-64.1,297.2z"/>
<circle class="st0" cx="-80" cy="298.3" r="44.8"/>
<g>
	<g>
		<defs>
			<circle id="SVGID_7_" cx="-80" cy="298.3" r="44.8"/>
		</defs>
		<clipPath id="SVGID_8_">
			<use xlink:href="#SVGID_7_"  style="overflow:visible;"/>
		</clipPath>
		<polygon class="st11" points="-57.4,279.1 -34.2,310.3 -45.8,349.3 -64.8,332 		"/>
	</g>
</g>
<circle class="st12" cx="-80" cy="298.3" r="44.8"/>
<path class="st13" d="M-101.7,279.3l6.2,50.2c0.1,0.8,0.5,1.5,1.1,2.2c0.6,0.7,1.3,1,2,1h28.1c0.7,0,1.4-0.3,2-1
	c0.6-0.7,1-1.4,1.1-2.2l6.2-50.2C-55,279.3-101.7,279.3-101.7,279.3z M-64.3,307l-27.6-0.2l-2.8-21.1h32.9L-64.3,307z"/>
<path class="st4" d="M-103.5,278.3l6.2,51.2c0.1,0.8,0.5,1.5,1.1,2.2c0.6,0.7,1.3,1,2,1h28.1c0.7,0,1.4-0.3,2-1
	c0.6-0.7,1-1.4,1.1-2.2l6.2-51.2C-56.8,278.3-103.5,278.3-103.5,278.3z M-66,306.5l-27.6-0.2l-2.8-21.5h32.9L-66,306.5z"/>
<circle class="st0" cx="40.5" cy="298.3" r="44.8"/>
<g>
	<g>
		<defs>
			<circle id="SVGID_9_" cx="40.5" cy="298.3" r="44.8"/>
		</defs>
		<clipPath id="SVGID_10_">
			<use xlink:href="#SVGID_9_"  style="overflow:visible;"/>
		</clipPath>
		<polygon class="st14" points="63.1,279.1 86.2,310.3 74.7,349.3 55.7,332 		"/>
	</g>
</g>
<circle class="st15" cx="40.5" cy="298.3" r="44.8"/>
<circle class="st0" cx="160" cy="298.3" r="44.8"/>
<g>
	<g>
		<defs>
			<circle id="SVGID_11_" cx="160" cy="298.3" r="44.8"/>
		</defs>
		<clipPath id="SVGID_12_">
			<use xlink:href="#SVGID_11_"  style="overflow:visible;"/>
		</clipPath>
		<polygon class="st16" points="182.6,279.1 205.8,310.3 194.2,349.3 175.2,332 		"/>
	</g>
</g>
<circle class="st17" cx="160" cy="298.3" r="44.8"/>
<path class="st18" d="M19,280.3l6.2,48.6c0.1,0.8,0.5,1.5,1.1,2.1c0.6,0.6,1.3,0.9,2,0.9h28.2c0.7,0,1.4-0.3,2-0.9
	c0.6-0.6,1-1.3,1.1-2.1l6.4-48.6H19z M55.6,314l-26.3,0.1L26,286.4h33L55.6,314z"/>
<path class="st4" d="M17,278.3l6.2,50.5c0.1,0.8,0.5,1.5,1.1,2.2c0.6,0.7,1.3,1,2,1h28.2c0.7,0,1.4-0.3,2-1c0.6-0.7,1-1.4,1.1-2.2
	l6.4-50.5H17z M53.6,313.3l-26.3,0.1L24,284.6h33L53.6,313.3z"/>
<path class="st19" d="M140.1,280.3l6,48.8c0.1,0.8,0.5,1.5,1.1,2.1c0.6,0.6,1.3,0.9,2,0.9h27.4c0.7,0,1.4-0.3,2-0.9
	c0.6-0.6,1-1.3,1.1-2.1l6-48.8C185.7,280.3,140.1,280.3,140.1,280.3z M174.2,326h-22.8l-4.5-39.6h32L174.2,326z"/>
<path class="st4" d="M138.1,278.3l6,50.7c0.1,0.8,0.5,1.5,1.1,2.2c0.6,0.7,1.3,1,2,1h27.4c0.7,0,1.4-0.3,2-1c0.6-0.7,1-1.4,1.1-2.2
	l6-50.7C183.7,278.3,138.1,278.3,138.1,278.3z M172.2,325.7h-22.8l-4.5-41.1h32L172.2,325.7z"/>
</svg>
