<?xml version="1.0" encoding="utf-8"?>
<!-- Generator: Adobe Illustrator 19.1.0, SVG Export Plug-In . SVG Version: 6.00 Build 0)  -->
<svg version="1.1" id="Laag_1" xmlns="http://www.w3.org/2000/svg" xmlns:xlink="http://www.w3.org/1999/xlink" x="0px" y="0px"
	 viewBox="-370 248.3 100 100" style="enable-background:new -370 248.3 100 100;" xml:space="preserve">
<style type="text/css">
	.st0{fill:#2ECC71;}
	.st1{opacity:0.66;clip-path:url(#SVGID_2_);fill:#249351;enable-background:new    ;}
	.st2{fill:#FF3333;}
	.st3{fill:#993131;}
	.st4{fill:#FFFFFF;}
	.st5{opacity:0.66;clip-path:url(#SVGID_4_);fill:#249351;enable-background:new    ;}
	.st6{fill:#A53232;}
	.st7{opacity:0.66;clip-path:url(#SVGID_6_);fill:#249351;enable-background:new    ;}
	.st8{fill:#E98B39;}
	.st9{opacity:0.66;fill:#915527;enable-background:new    ;}
	.st10{opacity:0.66;clip-path:url(#SVGID_8_);fill:#249351;enable-background:new    ;}
	.st11{fill:#E9D460;}
	.st12{fill:#8C7D3B;}
	.st13{opacity:0.66;clip-path:url(#SVGID_10_);fill:#249351;enable-background:new    ;}
	.st14{fill:#16A085;}
	.st15{opacity:0.66;clip-path:url(#SVGID_12_);fill:#249351;enable-background:new    ;}
	.st16{fill:#0FEA68;}
	.st17{opacity:0.66;fill:#17826E;enable-background:new    ;}
	.st18{fill:#249351;}
</style>
<circle class="st0" cx="-560" cy="178.3" r="44.8"/>
<g>
	<g>
		<defs>
			<circle id="SVGID_1_" cx="-560" cy="178.3" r="44.8"/>
		</defs>
		<clipPath id="SVGID_2_">
			<use xlink:href="#SVGID_1_"  style="overflow:visible;"/>
		</clipPath>
		<polygon class="st1" points="-537.4,159.1 -514.2,190.3 -525.8,229.3 -544.8,212 		"/>
	</g>
</g>
<circle class="st2" cx="-560" cy="178.3" r="44.8"/>
<g>
	<path class="st3" d="M-581.8,159.9l6.3,49.1c0.1,0.8,0.5,1.5,1.2,2.1c0.6,0.6,1.3,1,2,1h28.3c0.7,0,1.4-0.3,2-1
		c0.6-0.6,1-1.3,1.2-2.1l6.3-49.1H-581.8z M-541.7,166h-33.1l0,0H-541.7L-541.7,166z"/>
	<path class="st3" d="M-572.6,159.9c2.1-1.9,4.2-3.9,6.2-5.8c2,1.9,4.1,3.8,6.2,5.8h9l-0.1-0.1c2.3-1.4,4.3-2.7,6.5-4
		c1.2,1.4,2.3,2.7,3.5,4.1h6.5c-2.4-2.8-4.8-5.5-7.2-8.3c-1.3-1.5-2.6-1.7-4.3-0.6c-2.9,1.8-5.8,3.5-8.7,5.3
		c-0.2-0.2-0.4-0.4-0.6-0.6c-2.8-2.6-5.5-5.1-8.3-7.7c-1.8-1.7-3.5-1.7-5.4,0c-4.3,3.9-8.5,7.8-12.7,11.8L-572.6,159.9L-572.6,159.9
		z"/>
</g>
<g>
	<path class="st4" d="M-583.6,158.1l6.3,50.8c0.1,0.8,0.5,1.5,1.2,2.2c0.6,0.7,1.3,1,2,1h28.3c0.7,0,1.4-0.3,2-1
		c0.6-0.7,1-1.4,1.2-2.2l6.3-50.8H-583.6z M-543.4,164.4h-33.1l0,0H-543.4L-543.4,164.4z"/>
	<path class="st4" d="M-574.3,158.1c2.1-2,4.2-4,6.2-6c2,1.9,4.1,3.9,6.2,6h9l-0.1-0.1c2.3-1.4,4.3-2.8,6.5-4.1
		c1.2,1.4,2.3,2.8,3.5,4.2h6.5c-2.4-2.9-4.8-5.7-7.2-8.6c-1.3-1.5-2.6-1.7-4.3-0.6c-2.9,1.8-5.8,3.7-8.7,5.5
		c-0.2-0.2-0.4-0.4-0.6-0.6c-2.8-2.6-5.5-5.3-8.3-7.9c-1.8-1.7-3.5-1.7-5.4,0c-4.3,4.1-8.5,8.1-12.7,12.2H-574.3z"/>
</g>
<circle class="st0" cx="-440" cy="178.3" r="44.8"/>
<g>
	<g>
		<defs>
			<circle id="SVGID_3_" cx="-440" cy="178.3" r="44.8"/>
		</defs>
		<clipPath id="SVGID_4_">
			<use xlink:href="#SVGID_3_"  style="overflow:visible;"/>
		</clipPath>
		<polygon class="st5" points="-417.4,159.1 -394.2,190.3 -405.8,229.3 -424.8,212 		"/>
	</g>
</g>
<circle class="st6" cx="-440" cy="178.3" r="44.8"/>
<path class="st3" d="M-461.8,159.9l6.3,49.1c0.1,0.8,0.5,1.5,1.2,2.1c0.6,0.6,1.3,1,2,1h28.3c0.7,0,1.4-0.3,2-1
	c0.6-0.7,1-1.3,1.2-2.1l6.3-49.1H-461.8z M-421.7,166h-33.1l0,0H-421.7L-421.7,166z"/>
<path class="st4" d="M-463.6,158.1l6.3,50.8c0.1,0.8,0.5,1.5,1.2,2.2c0.6,0.7,1.3,1,2,1h28.3c0.7,0,1.4-0.3,2-1
	c0.6-0.7,1-1.4,1.2-2.2l6.3-50.8H-463.6z M-423.4,164.4h-33.1l0,0H-423.4L-423.4,164.4z"/>
<circle class="st0" cx="-320" cy="178.3" r="44.8"/>
<g>
	<g>
		<defs>
			<circle id="SVGID_5_" cx="-320" cy="178.3" r="44.8"/>
		</defs>
		<clipPath id="SVGID_6_">
			<use xlink:href="#SVGID_5_"  style="overflow:visible;"/>
		</clipPath>
		<polygon class="st7" points="-297.4,159.1 -274.2,190.3 -285.8,229.3 -304.8,212 		"/>
	</g>
</g>
<circle class="st8" cx="-320" cy="178.3" r="44.8"/>
<path class="st9" d="M-340.7,159.1l6.3,49.8c0.1,0.8,0.5,1.5,1.2,2.2c0.6,0.6,1.3,1,2,1h28.2c0.7,0,1.4-0.3,2-1s1-1.4,1.2-2.2
	l6.3-49.8H-340.7z M-302.1,177.8h-30l-1.6-12.5h33.1L-302.1,177.8z"/>
<path class="st4" d="M-342.7,158.1l6.3,50.8c0.1,0.8,0.5,1.5,1.2,2.2c0.6,0.7,1.3,1,2,1h28.2c0.7,0,1.4-0.3,2-1s1-1.4,1.2-2.2
	l6.3-50.8H-342.7z M-304.1,177.2h-30l-1.5-12.7h33.1L-304.1,177.2z"/>
<circle class="st0" cx="-320" cy="298.3" r="44.8"/>
<g>
	<g>
		<defs>
			<circle id="SVGID_7_" cx="-320" cy="298.3" r="44.8"/>
		</defs>
		<clipPath id="SVGID_8_">
			<use xlink:href="#SVGID_7_"  style="overflow:visible;"/>
		</clipPath>
		<polygon class="st10" points="-297.4,279.1 -274.2,310.3 -285.8,349.3 -304.8,332 		"/>
	</g>
</g>
<circle class="st11" cx="-320" cy="298.3" r="44.8"/>
<path class="st12" d="M-341.7,279.3l6.2,50.2c0.1,0.8,0.5,1.5,1.1,2.2c0.6,0.7,1.3,1,2,1h28.1c0.7,0,1.4-0.3,2-1
	c0.6-0.7,1-1.4,1.1-2.2l6.2-50.2C-295,279.3-341.7,279.3-341.7,279.3z M-304.3,307l-27.6-0.2l-2.8-21.1h32.9L-304.3,307z"/>
<path class="st4" d="M-343.5,278.3l6.2,51.2c0.1,0.8,0.5,1.5,1.1,2.2c0.6,0.7,1.3,1,2,1h28.1c0.7,0,1.4-0.3,2-1
	c0.6-0.7,1-1.4,1.1-2.2l6.2-51.2C-296.8,278.3-343.5,278.3-343.5,278.3z M-306,306.5l-27.6-0.2l-2.8-21.5h32.9L-306,306.5z"/>
<circle class="st0" cx="-199.5" cy="298.3" r="44.8"/>
<g>
	<g>
		<defs>
			<circle id="SVGID_9_" cx="-199.5" cy="298.3" r="44.8"/>
		</defs>
		<clipPath id="SVGID_10_">
			<use xlink:href="#SVGID_9_"  style="overflow:visible;"/>
		</clipPath>
		<polygon class="st13" points="-176.9,279.1 -153.8,310.3 -165.3,349.3 -184.3,332 		"/>
	</g>
</g>
<circle class="st14" cx="-199.5" cy="298.3" r="44.8"/>
<circle class="st0" cx="-80" cy="298.3" r="44.8"/>
<g>
	<g>
		<defs>
			<circle id="SVGID_11_" cx="-80" cy="298.3" r="44.8"/>
		</defs>
		<clipPath id="SVGID_12_">
			<use xlink:href="#SVGID_11_"  style="overflow:visible;"/>
		</clipPath>
		<polygon class="st15" points="-57.4,279.1 -34.2,310.3 -45.8,349.3 -64.8,332 		"/>
	</g>
</g>
<circle class="st16" cx="-80" cy="298.3" r="44.8"/>
<path class="st17" d="M-221,280.3l6.2,48.6c0.1,0.8,0.5,1.5,1.1,2.1c0.6,0.6,1.3,0.9,2,0.9h28.2c0.7,0,1.4-0.3,2-0.9
	c0.6-0.6,1-1.3,1.1-2.1l6.4-48.6H-221z M-184.4,314l-26.3,0.1l-3.3-27.7h33L-184.4,314z"/>
<path class="st4" d="M-223,278.3l6.2,50.5c0.1,0.8,0.5,1.5,1.1,2.2c0.6,0.7,1.3,1,2,1h28.2c0.7,0,1.4-0.3,2-1c0.6-0.7,1-1.4,1.1-2.2
	l6.4-50.5H-223z M-186.4,313.3l-26.3,0.1l-3.3-28.8h33L-186.4,313.3z"/>
<path class="st18" d="M-99.9,280.3l6,48.8c0.1,0.8,0.5,1.5,1.1,2.1c0.6,0.6,1.3,0.9,2,0.9h27.4c0.7,0,1.4-0.3,2-0.9
	c0.6-0.6,1-1.3,1.1-2.1l6-48.8C-54.3,280.3-99.9,280.3-99.9,280.3z M-65.8,326h-22.8l-4.5-39.6h32L-65.8,326z"/>
<path class="st4" d="M-101.9,278.3l6,50.7c0.1,0.8,0.5,1.5,1.1,2.2c0.6,0.7,1.3,1,2,1h27.4c0.7,0,1.4-0.3,2-1c0.6-0.7,1-1.4,1.1-2.2
	l6-50.7C-56.3,278.3-101.9,278.3-101.9,278.3z M-67.8,325.7h-22.8l-4.5-41.1h32L-67.8,325.7z"/>
</svg>
