<?xml version="1.0" encoding="utf-8"?>
<!-- Generator: Adobe Illustrator 19.1.0, SVG Export Plug-In . SVG Version: 6.00 Build 0)  -->
<svg version="1.1" id="Laag_1" xmlns="http://www.w3.org/2000/svg" xmlns:xlink="http://www.w3.org/1999/xlink" x="0px" y="0px"
	 viewBox="0 0 100 100" style="enable-background:new 0 0 100 100;" xml:space="preserve">
<style type="text/css">
	.st0{fill:#D64541;}
	.st1{opacity:0.27;}
	.st2{fill:#6B2222;}
	.st3{opacity:0.64;}
	.st4{opacity:0.21;clip-path:url(#SVGID_2_);fill:#6B2222;}
	.st5{fill:#FFFFFF;}
</style>
<circle class="st0" cx="50.2" cy="50" r="44.8"/>
<g class="st1">
	<path class="st2" d="M63,75.3c0.9,0.9,0.9,2.3,0,3.1c-0.9,0.9-2.2,0.9-3.1,0L34.9,53.1c-0.9-0.9-0.9-2.3,0-3.1l25.1-25.3
		c0.9-0.9,2.2-0.9,3.1,0c0.9,0.9,0.9,2.3,0,3.1L40.2,51.5L63,75.3z"/>
</g>
<g class="st3">
	<defs>
		<circle id="SVGID_1_" class="st3" cx="50.2" cy="50" r="44.8"/>
	</defs>
	<clipPath id="SVGID_2_">
		<use xlink:href="#SVGID_1_"  style="overflow:visible;"/>
	</clipPath>
	<polyline class="st4" points="63.3,23.3 102.8,61.6 71.2,92 60.4,79.8 33.9,53.4 	"/>
</g>
<g>
	<path class="st5" d="M62.7,77.7c1,1,1,2.6,0,3.5c-1,1-2.5,1-3.5,0L31,52.8c-1-1-1-2.6,0-3.5l28.2-28.5c1-1,2.5-1,3.5,0
		c1,1,1,2.6,0,3.5L37,51L62.7,77.7z"/>
</g>
</svg>
